<?xml version="1.0" encoding="iso-8859-1"?>
<!-- Generator: Adobe Illustrator 18.1.1, SVG Export Plug-In . SVG Version: 6.00 Build 0)  -->
<svg version="1.1" id="Capa_1" xmlns="http://www.w3.org/2000/svg" xmlns:xlink="http://www.w3.org/1999/xlink" x="0px" y="0px"
	 viewBox="0 0 35.651 35.651" style="enable-background:new 0 0 35.651 35.651;" xml:space="preserve">
<g>
	<path style="fill:#030104;" d="M34.985,2.293c0-1.263-1.027-2.291-2.291-2.291L25.031,0c-0.521,0-0.915,0.131-1.173,0.39
		c-0.353,0.352-0.495,1.036,0.267,1.798l1.936,1.935c-1.951,0.879-5.925,3.03-8.527,6.812H2.519c-0.115,0-0.23,0.012-0.344,0.034
		c-0.188,0.037-0.452,0.172-0.599,0.262s-0.557,0.393-0.742,0.791c-0.11,0.238-0.17,0.5-0.17,0.768v21.007
		c0,1.022,0.832,1.854,1.854,1.854h28.416c1.022,0,1.854-0.832,1.854-1.854V12.791c0-0.268-0.06-0.529-0.17-0.768
		c-0.187-0.398-0.597-0.701-0.742-0.791c-0.146-0.091-0.409-0.226-0.597-0.263c-0.114-0.022-0.229-0.034-0.346-0.034h-5.706
		c2.442-1.369,4.607-1.986,5.428-2.186l2.146,2.113c0.762,0.762,1.443,0.619,1.797,0.267c0.26-0.258,0.39-0.652,0.39-1.173
		L34.985,2.293z M31.29,13.106v20.691c0,0.196-0.159,0.355-0.356,0.355H2.519c-0.195,0-0.354-0.159-0.354-0.354l0.01-20.686
		l13.217,9.034c0.729,0.499,1.937,0.5,2.668,0L31.29,13.106z M29.611,12.435l-12.397,8.473c-0.239,0.164-0.737,0.164-0.978,0
		L3.842,12.435h12.789c-0.507,0.965-0.926,2.011-1.201,3.159c-0.428,1.78-0.306,3.463-0.186,3.671
		c0.069,0.122,0.154,0.253,0.244,0.359c0.125,0.143,0.305,0.238,0.494,0.275c0.313,0.062,0.721-0.186,0.915-0.328
		c0.195-0.144,0.951-1.633,2.021-3.118c1.19-1.654,2.584-2.969,3.992-4.018H29.611z M33.826,10.242
		c-0.055-0.034-0.134-0.093-0.223-0.183l-2.594-2.593c-0.062,0.012-3.985,0.78-8.035,3.469h-0.18v0.123
		c-2.343,1.587-4.71,3.819-6.381,6.928C17.045,8.587,27.067,4.8,27.178,4.762l0.781-0.334l-0.738-0.782l-2.295-2.261
		c-0.09-0.09-0.146-0.168-0.183-0.224c0.06-0.014,0.149-0.028,0.287-0.028l7.662,0.001c0.639,0,1.157,0.521,1.159,1.159l0.002,7.662
		C33.854,10.091,33.841,10.182,33.826,10.242z"/>
</g>
<g>
</g>
<g>
</g>
<g>
</g>
<g>
</g>
<g>
</g>
<g>
</g>
<g>
</g>
<g>
</g>
<g>
</g>
<g>
</g>
<g>
</g>
<g>
</g>
<g>
</g>
<g>
</g>
<g>
</g>
</svg>
