<?xml version="1.0" encoding="iso-8859-1"?>
<!-- Generator: Adobe Illustrator 18.0.0, SVG Export Plug-In . SVG Version: 6.00 Build 0)  -->
<!DOCTYPE svg PUBLIC "-//W3C//DTD SVG 1.1//EN" "http://www.w3.org/Graphics/SVG/1.1/DTD/svg11.dtd">
<svg version="1.1" id="Capa_1" xmlns="http://www.w3.org/2000/svg" xmlns:xlink="http://www.w3.org/1999/xlink" x="0px" y="0px"
	 viewBox="0 0 297.5 297.5" style="enable-background:new 0 0 297.5 297.5;" xml:space="preserve">
<g id="XMLID_24_">
	<g>
		<path d="M297.25,134.82v81.76c0,5.56-4.5,10.07-10.06,10.07h-7.28c-0.74,19.21-16.6,34.61-35.98,34.61
			c-19.39,0-35.25-15.4-35.99-34.61H89.57c-0.75,19.21-16.6,34.61-35.99,34.61s-35.24-15.4-35.99-34.61h-7.27
			c-5.56,0-10.07-4.51-10.07-10.07V73.91c0-20.77,16.9-37.67,37.67-37.67h135.14c20.77,0,37.67,16.9,37.67,37.67v28.78h54.39
			C282.84,102.69,297.25,117.1,297.25,134.82z M277.12,206.51v-31.77h-66.39v31.77h2.43c6.33-10.36,17.75-17.3,30.77-17.3
			c13.01,0,24.43,6.94,30.76,17.3H277.12z M277.12,154.6v-19.78c0-6.61-5.38-11.99-12-11.99h-54.39v31.77H277.12z M259.81,225.23
			c0-8.76-7.12-15.88-15.88-15.88c-8.77,0-15.89,7.12-15.89,15.88c0,8.76,7.12,15.89,15.89,15.89
			C252.69,241.12,259.81,233.99,259.81,225.23z M190.6,206.51V73.91c0-9.67-7.87-17.53-17.54-17.53H37.92
			c-9.67,0-17.53,7.86-17.53,17.53v132.6h2.42c6.34-10.36,17.76-17.3,30.77-17.3s24.43,6.94,30.77,17.3H190.6z M69.47,225.23
			c0-8.76-7.13-15.88-15.89-15.88s-15.89,7.12-15.89,15.88c0,8.76,7.13,15.89,15.89,15.89S69.47,233.99,69.47,225.23z"/>
		<path style="fill:#E67E22;" d="M277.12,174.74v31.77h-2.43c-6.33-10.36-17.75-17.3-30.76-17.3c-13.02,0-24.44,6.94-30.77,17.3
			h-2.43v-31.77H277.12z"/>
		<path style="fill:#BDC3C7;" d="M277.12,134.82v19.78h-66.39v-31.77h54.39C271.74,122.83,277.12,128.21,277.12,134.82z"/>
		<path style="fill:#BDC3C7;" d="M243.93,209.35c8.76,0,15.88,7.12,15.88,15.88c0,8.76-7.12,15.89-15.88,15.89
			c-8.77,0-15.89-7.13-15.89-15.89C228.04,216.47,235.16,209.35,243.93,209.35z"/>
		<path style="fill:#FFA800;" d="M190.6,73.91v132.6H84.35c-6.34-10.36-17.76-17.3-30.77-17.3s-24.43,6.94-30.77,17.3h-2.42V73.91
			c0-9.67,7.86-17.53,17.53-17.53h135.14C182.73,56.38,190.6,64.24,190.6,73.91z"/>
		<path style="fill:#BDC3C7;" d="M53.58,209.35c8.76,0,15.89,7.12,15.89,15.88c0,8.76-7.13,15.89-15.89,15.89
			s-15.89-7.13-15.89-15.89C37.69,216.47,44.82,209.35,53.58,209.35z"/>
	</g>
	<g>
	</g>
</g>
<g>
</g>
<g>
</g>
<g>
</g>
<g>
</g>
<g>
</g>
<g>
</g>
<g>
</g>
<g>
</g>
<g>
</g>
<g>
</g>
<g>
</g>
<g>
</g>
<g>
</g>
<g>
</g>
<g>
</g>
</svg>
