<?xml version="1.0" encoding="UTF-8" standalone="no"?>
<!-- Generator: Adobe Illustrator 19.0.0, SVG Export Plug-In . SVG Version: 6.00 Build 0)  -->

<svg
   xmlns:dc="http://purl.org/dc/elements/1.1/"
   xmlns:cc="http://creativecommons.org/ns#"
   xmlns:rdf="http://www.w3.org/1999/02/22-rdf-syntax-ns#"
   xmlns:svg="http://www.w3.org/2000/svg"
   xmlns="http://www.w3.org/2000/svg"
   xmlns:sodipodi="http://sodipodi.sourceforge.net/DTD/sodipodi-0.dtd"
   xmlns:inkscape="http://www.inkscape.org/namespaces/inkscape"
   version="1.1"
   id="Layer_1"
   x="0px"
   y="0px"
   viewBox="0 0 461.6 461.6"
   style="enable-background:new 0 0 461.6 461.6;"
   xml:space="preserve"
   inkscape:version="0.91 r13725"
   sodipodi:docname="hd.svg"><metadata
     id="metadata57"><rdf:RDF><cc:Work
         rdf:about=""><dc:format>image/svg+xml</dc:format><dc:type
           rdf:resource="http://purl.org/dc/dcmitype/StillImage" /></cc:Work></rdf:RDF></metadata><defs
     id="defs55" /><sodipodi:namedview
     pagecolor="#ffffff"
     bordercolor="#666666"
     borderopacity="1"
     objecttolerance="10"
     gridtolerance="10"
     guidetolerance="10"
     inkscape:pageopacity="0"
     inkscape:pageshadow="2"
     inkscape:window-width="1920"
     inkscape:window-height="1017"
     id="namedview53"
     showgrid="false"
     inkscape:zoom="0.51126516"
     inkscape:cx="230.8"
     inkscape:cy="230.8"
     inkscape:window-x="-8"
     inkscape:window-y="-8"
     inkscape:window-maximized="1"
     inkscape:current-layer="Layer_1" /><path
     style="fill:#F7B208;"
     d="M448.8,417.2c0,17.6-14.4,32-32,32H44c-17.6,0-32-14.4-32-32V44.4c0-17.6,14.4-32,32-32h373.6  c17.6,0,32,14.4,32,32v372.8H448.8z"
     id="path3" /><path
     style="fill:#F4A00B;"
     d="M12,44.4c0-17.6,14.4-32,32-32h373.6c17.6,0,32,14.4,32,32V418c0,17.6-14.4,32-32,32"
     id="path5" /><path
     style="fill:#F7B208;"
     d="M416.8,461.2H44c-24,0-44-20-44-44V44.4c0-24,20-44,44-44h373.6c24,0,44,20,44,44V418  C460.8,442,441.6,461.2,416.8,461.2z M44,24.4c-11.2,0-20,8.8-20,20V418c0,11.2,8.8,20,20,20h373.6c11.2,0,20-8.8,20-20V44.4  c0-11.2-8.8-20-20-20H44z"
     id="path7" /><g
     id="g23" /><g
     id="g25" /><g
     id="g27" /><g
     id="g29" /><g
     id="g31" /><g
     id="g33" /><g
     id="g35" /><g
     id="g37" /><g
     id="g39" /><g
     id="g41" /><g
     id="g43" /><g
     id="g45" /><g
     id="g47" /><g
     id="g49" /><g
     id="g51" /><g
     id="g3440"
     transform="matrix(0.74786795,0,0,0.75351822,39.34583,35.942854)"><g
       id="g3386"><g
         id="g3388"><path
           id="path3390"
           d="m 330.405,265.891 c -0.968,-2.992 -3.556,-5.174 -6.669,-5.626 l -41.68,-6.057 -18.641,-37.771 c -1.393,-2.822 -4.267,-4.608 -7.413,-4.608 -3.147,0 -6.02,1.787 -7.413,4.608 l -18.641,37.771 -41.681,6.057 c -3.114,0.452 -5.702,2.633 -6.674,5.626 -0.972,2.992 -0.161,6.278 2.091,8.474 l 30.161,29.4 -7.12,41.514 c -0.531,3.101 0.744,6.235 3.289,8.085 2.545,1.848 5.919,2.093 8.705,0.629 L 256,334.392 l 37.281,19.601 c 1.21,0.636 2.531,0.949 3.846,0.949 1.715,0 3.42,-0.532 4.86,-1.579 2.546,-1.85 3.821,-4.983 3.288,-8.085 l -7.12,-41.514 30.161,-29.399 c 2.251,-2.197 3.061,-5.482 2.089,-8.474 z m -46.902,29.069 c -1.949,1.899 -2.837,4.636 -2.376,7.318 l 5.024,29.288 -26.302,-13.828 c -2.409,-1.265 -5.285,-1.265 -7.693,0 l -26.302,13.828 5.023,-29.289 c 0.461,-2.682 -0.429,-5.417 -2.376,-7.316 l -21.279,-20.741 29.407,-4.273 c 2.693,-0.391 5.021,-2.082 6.224,-4.522 l 13.152,-26.647 13.152,26.647 c 1.205,2.439 3.531,4.131 6.224,4.522 l 29.406,4.273 -21.284,20.74 z"
           inkscape:connector-curvature="0" /></g></g><g
       id="g3392"><g
         id="g3394"><path
           id="path3396"
           d="m 117.121,217.987 c 33.705,0 65.351,-20.995 77.226,-54.533 1.523,-4.304 -0.73,-9.028 -5.034,-10.551 -20.5,-7.259 -42.59,-6.136 -62.245,3.143 4.982,-6.532 10.445,-12.813 16.411,-18.778 3.228,-3.228 3.228,-8.463 0,-11.69 -3.229,-3.228 -8.463,-3.228 -11.691,0 -4.26,4.26 -8.275,8.673 -12.075,13.207 -0.905,-24.555 -12.766,-48.449 -34.287,-63.764 -3.721,-2.647 -8.882,-1.777 -11.528,1.942 -12.675,17.812 -17.656,39.493 -14.024,61.05 3.362,19.95 13.737,37.571 29.379,50.136 -2.717,6.294 -5.091,12.701 -7.139,19.191 -1.621,-3.626 -3.514,-7.161 -5.679,-10.577 -11.708,-18.462 -29.904,-31.26 -51.236,-36.037 -2.137,-0.479 -4.382,-0.088 -6.233,1.086 -1.852,1.174 -3.16,3.036 -3.64,5.175 -9.518,42.504 16.059,84.824 57.447,96.585 -0.208,8.763 0.162,17.534 1.085,26.258 -1.917,-1.704 -3.917,-3.334 -6.01,-4.873 C 50.233,272.01 28.636,266.698 7.02,269.996 c -4.514,0.689 -7.613,4.906 -6.924,9.419 3.299,21.611 14.817,40.643 32.432,53.59 14.203,10.44 30.997,15.916 48.299,15.916 2.769,0 5.552,-0.154 8.338,-0.436 3.38,7.855 7.279,15.539 11.701,22.997 -25.575,-8.2 -54.672,-3.717 -76.953,14.529 -3.531,2.893 -4.051,8.101 -1.158,11.634 13.85,16.913 33.458,27.421 55.212,29.587 2.765,0.276 5.519,0.411 8.26,0.411 16.883,0 33.172,-5.19 47.004,-14.972 9.305,9.122 19.464,17.358 30.241,24.474 1.402,0.926 2.984,1.369 4.548,1.369 2.684,0 5.316,-1.306 6.906,-3.712 2.515,-3.81 1.466,-8.938 -2.343,-11.454 -10.407,-6.871 -20.199,-14.871 -29.104,-23.775 -19.915,-19.915 -34.333,-43.273 -43.279,-68.172 39.254,-15.129 61.092,-58.205 49.077,-99.297 -1.281,-4.381 -5.87,-6.894 -10.254,-5.615 -20.983,6.135 -38.32,20.075 -48.819,39.25 -0.334,0.61 -0.636,1.23 -0.953,1.846 0.078,-17.587 2.63,-35.164 7.666,-52.158 6.722,1.725 13.502,2.56 20.204,2.56 z m -44.715,28.092 c -27.378,-10.17 -44.775,-37.605 -42.299,-66.706 13.329,4.931 24.624,14.034 32.364,26.241 7.74,12.207 11.16,26.307 9.935,40.465 z M 42.32,319.684 c -11.646,-8.561 -19.953,-20.455 -23.956,-34.09 0.351,-0.005 0.701,-0.009 1.052,-0.009 28.775,0 54.426,19.115 62.592,46.79 -14.211,0.236 -28.042,-4.13 -39.688,-12.691 z m 37.286,91.096 c -14.383,-1.432 -27.59,-7.434 -37.983,-17.127 24.886,-15.284 57.212,-12.067 78.598,7.826 -12.1,7.452 -26.234,10.731 -40.615,9.301 z m 25.099,-137.102 c 6.942,-12.678 17.63,-22.487 30.614,-28.264 4.338,28.881 -11.263,57.377 -37.932,69.282 -2.129,-14.05 0.378,-28.34 7.318,-41.018 z m 29.171,-102.573 c 13.047,-6.224 27.455,-7.928 41.364,-5.018 -13.375,25.963 -42.692,39.953 -71.291,34.009 6.492,-12.643 16.882,-22.766 29.927,-28.991 z m -57.7,-35.84 c -2.402,-14.254 -0.085,-28.575 6.534,-41.151 21.291,19.99 26.689,52.025 13.123,77.889 C 85.459,162.29 78.577,149.518 76.176,135.265 Z"
           inkscape:connector-curvature="0" /></g></g><g
       id="g3398"><g
         id="g3400"><path
           id="path3402"
           d="m 431.173,348.921 c 17.301,0 34.098,-5.477 48.299,-15.916 17.614,-12.948 29.134,-31.979 32.432,-53.591 0.689,-4.513 -2.412,-8.729 -6.924,-9.419 -25.062,-3.827 -49.249,4.205 -66.843,19.889 0.926,-8.743 1.299,-17.533 1.09,-26.314 19.369,-5.49 35.834,-17.737 46.701,-34.875 11.707,-18.462 15.523,-40.378 10.747,-61.71 -0.996,-4.456 -5.417,-7.256 -9.872,-6.261 -21.332,4.776 -39.529,17.575 -51.235,36.037 -2.166,3.416 -4.058,6.952 -5.68,10.578 -2.047,-6.49 -4.422,-12.897 -7.139,-19.192 33.464,-26.915 40.574,-75.749 15.356,-111.186 -1.271,-1.787 -3.199,-2.995 -5.361,-3.358 -2.164,-0.368 -4.38,0.144 -6.167,1.416 -17.812,12.675 -29.621,31.528 -33.254,53.086 -0.597,3.547 -0.939,7.096 -1.075,10.632 -3.788,-4.518 -7.79,-8.915 -12.036,-13.16 -3.228,-3.228 -8.462,-3.229 -11.691,0 -3.228,3.228 -3.228,8.463 0,11.69 5.966,5.966 11.429,12.246 16.41,18.778 -19.653,-9.278 -41.744,-10.403 -62.243,-3.143 -4.304,1.523 -6.557,6.247 -5.034,10.551 11.875,33.541 43.517,54.533 77.226,54.533 6.698,0 13.48,-0.834 20.203,-2.559 5.044,17.019 7.595,34.625 7.667,52.239 -9.911,-19.278 -27.374,-34.628 -49.771,-41.177 -4.383,-1.282 -8.972,1.233 -10.254,5.615 -6.136,20.983 -3.734,43.099 6.765,62.274 9.39,17.15 24.261,30.094 42.308,37.03 -8.947,24.897 -23.365,48.252 -43.277,68.166 -8.901,8.903 -18.695,16.901 -29.104,23.775 -3.809,2.516 -4.859,7.644 -2.343,11.454 1.589,2.407 4.223,3.712 6.906,3.712 1.564,0 3.146,-0.443 4.548,-1.369 10.782,-7.119 20.941,-15.355 30.246,-24.478 14.195,10.022 30.677,14.933 47.078,14.933 23.71,0 47.236,-10.223 63.396,-29.955 1.389,-1.696 2.047,-3.875 1.83,-6.057 -0.217,-2.181 -1.292,-4.187 -2.988,-5.577 -16.914,-13.85 -38.21,-20.282 -59.962,-18.119 -5.83,0.581 -11.497,1.779 -16.949,3.519 4.404,-7.435 8.29,-15.095 11.659,-22.926 2.783,0.282 5.565,0.435 8.335,0.435 z m 50.728,-169.542 c 1.223,14.158 -2.195,28.257 -9.935,40.464 -7.741,12.207 -19.036,21.31 -32.364,26.241 -2.476,-29.1 14.921,-56.536 42.299,-66.705 z m 11.729,106.214 c -8.268,28.009 -34.446,47.221 -63.634,46.776 8.268,-28.009 34.429,-47.257 63.634,-46.776 z M 336.761,166.087 c 13.909,-2.911 28.315,-1.205 41.361,5.018 13.046,6.223 23.437,16.348 29.928,28.99 -28.606,5.938 -57.915,-8.045 -71.289,-34.008 z m 79.401,5.915 c -6.62,-12.576 -8.936,-26.897 -6.534,-41.151 2.402,-14.253 9.283,-27.025 19.657,-36.738 13.566,25.863 8.168,57.899 -13.123,77.889 z m 13.601,212.341 c 14.389,-1.432 28.515,1.848 40.615,9.302 -21.385,19.89 -53.713,23.109 -78.598,7.826 10.393,-9.694 23.6,-15.695 37.983,-17.128 z M 414.607,314.7 c -12.985,-5.776 -23.672,-15.585 -30.614,-28.263 -6.942,-12.678 -9.447,-26.968 -7.319,-41.019 26.669,11.905 42.271,40.401 37.933,69.282 z"
           inkscape:connector-curvature="0" /></g></g><g
       id="g3404" /><g
       id="g3406" /><g
       id="g3408" /><g
       id="g3410" /><g
       id="g3412" /><g
       id="g3414" /><g
       id="g3416" /><g
       id="g3418" /><g
       id="g3420" /><g
       id="g3422" /><g
       id="g3424" /><g
       id="g3426" /><g
       id="g3428" /><g
       id="g3430" /><g
       id="g3432" /></g></svg>