<?xml version="1.0" encoding="UTF-8" standalone="no"?>
<svg
   xmlns:dc="http://purl.org/dc/elements/1.1/"
   xmlns:cc="http://creativecommons.org/ns#"
   xmlns:rdf="http://www.w3.org/1999/02/22-rdf-syntax-ns#"
   xmlns:svg="http://www.w3.org/2000/svg"
   xmlns="http://www.w3.org/2000/svg"
   id="svg5186"
   xml:space="preserve"
   style="enable-background:new 0 0 512 512;"
   viewBox="0 0 512 512"
   height="512px"
   width="512px"
   y="0px"
   x="0px"
   version="1.1"><metadata
     id="metadata5207"><rdf:RDF><cc:Work
         rdf:about=""><dc:format>image/svg+xml</dc:format><dc:type
           rdf:resource="http://purl.org/dc/dcmitype/StillImage" /><dc:title></dc:title></cc:Work></rdf:RDF></metadata><defs
     id="defs5205" /><g
     id="Guides_For_Artboard" /><g
     id="Artwork" /><g
     id="g4499"
     transform="translate(-1.8305127,612.20923)"><circle
       style="fill:#664b3a;fill-opacity:1"
       cx="260"
       cy="-356.20923"
       r="245.00101"
       id="circle4186" /><path
       id="path4241"
       d="m 418.13281,-422.42872 -84.25477,-75.52057 c -9.95896,-8.92587 -26.57787,-8.50173 -36.53605,0.42414 l -195.24174,175.00287 c -9.958964,8.92587 -9.958964,23.39785 0,32.32443 l 84.25399,75.51986 c 9.95896,8.92658 26.10467,8.92658 36.06285,0 l 195.24174,-175.00216 c 9.95897,-8.92588 10.43216,-23.82199 0.47398,-32.74857 z m -128.37285,-35.28989 c 3.59907,-10.52201 14.99877,-16.97397 26.76902,-15.82655 1.56059,0.15238 3.12745,0.43608 4.68413,0.86373 1.35063,0.37147 2.63937,0.83634 3.86309,1.38196 10.82936,4.82914 16.4912,16.10393 12.82945,26.80992 -3.66175,10.7074 -15.40067,17.19939 -27.3895,15.75844 -1.35455,-0.16292 -2.71223,-0.42484 -4.06286,-0.79631 -1.55668,-0.42695 -3.03188,-0.97889 -4.41933,-1.63687 -10.46663,-4.96256 -15.87308,-16.03301 -12.274,-26.55432 z m -53.47537,47.93189 c 3.59907,-10.52201 14.99877,-16.97397 26.76902,-15.82655 1.56059,0.15238 3.12745,0.43678 4.68413,0.86443 1.34985,0.37077 2.63859,0.83564 3.86231,1.38196 10.82935,4.82914 16.49198,16.10393 12.82945,26.80992 -3.66175,10.7074 -15.40145,17.19939 -27.3895,15.75844 -1.35455,-0.16291 -2.71302,-0.42484 -4.06287,-0.79631 -1.55667,-0.42765 -3.03187,-0.9796 -4.41933,-1.63757 -10.46584,-4.96257 -15.87151,-16.03301 -12.27321,-26.55432 z m -53.47537,47.93119 c 3.59907,-10.52131 14.99877,-16.97327 26.76902,-15.82655 1.56059,0.15238 3.12745,0.43678 4.68334,0.86443 1.34985,0.37077 2.6386,0.83563 3.8631,1.38196 10.82935,4.82844 16.4912,16.10322 12.82945,26.80992 -3.66175,10.70739 -15.40145,17.20009 -27.3895,15.75844 -1.35533,-0.16292 -2.71302,-0.42484 -4.06287,-0.79561 -1.55667,-0.42765 -3.03187,-0.9803 -4.41933,-1.63757 -10.46506,-4.96257 -15.87151,-16.03301 -12.27321,-26.55502 z m -32.71996,76.92009 c -1.35455,-0.16222 -2.71224,-0.42484 -4.06287,-0.79562 -1.55589,-0.42764 -3.03187,-0.97959 -4.41855,-1.63756 -10.46584,-4.96257 -15.87229,-16.03301 -12.27399,-26.55432 3.59907,-10.52201 14.99876,-16.97397 26.76902,-15.82655 1.56059,0.15238 3.12745,0.43607 4.68413,0.86372 1.34985,0.37148 2.63859,0.83634 3.86231,1.38197 10.82935,4.82844 16.49198,16.10393 12.82945,26.80992 -3.66175,10.70669 -15.40067,17.19938 -27.3895,15.75844 z m 76.42909,31.48457 c -3.66254,10.7067 -15.40145,17.19939 -27.3895,15.75774 -1.35534,-0.16292 -2.71302,-0.42484 -4.06365,-0.79631 -1.5559,-0.42695 -3.03188,-0.9796 -4.41933,-1.63757 -10.46585,-4.96186 -15.8723,-16.03301 -12.27322,-26.55432 3.5983,-10.52201 14.99799,-16.97397 26.76902,-15.82655 1.5606,0.15238 3.12746,0.43607 4.68335,0.86372 1.34985,0.37148 2.63859,0.83634 3.86309,1.38197 10.83014,4.82984 16.49199,16.10393 12.83024,26.81132 z m 53.47537,-47.93189 c -3.66254,10.7067 -15.40145,17.19939 -27.3895,15.75774 -1.35455,-0.16291 -2.71302,-0.42484 -4.06287,-0.79631 -1.55589,-0.42765 -3.03187,-0.9796 -4.41933,-1.63757 -10.46584,-4.96257 -15.87229,-16.03301 -12.27321,-26.55502 3.59829,-10.52131 14.99798,-16.97397 26.76902,-15.82585 1.56059,0.15238 3.12745,0.43608 4.68334,0.86373 1.34985,0.37077 2.6386,0.83563 3.8631,1.38126 10.82935,4.83054 16.4912,16.10533 12.82945,26.81202 z m 53.47458,-47.93189 c -3.66175,10.7067 -15.40066,17.19939 -27.38949,15.75844 -1.35456,-0.16361 -2.71302,-0.42554 -4.06287,-0.79631 -1.55589,-0.42765 -3.03188,-0.97959 -4.41933,-1.63757 -10.46584,-4.96256 -15.8723,-16.033 -12.274,-26.55431 3.59829,-10.52201 14.99798,-16.97398 26.76902,-15.82656 1.56059,0.15238 3.12745,0.43608 4.68413,0.86373 1.34985,0.37077 2.63938,0.83564 3.86309,1.38126 10.82936,4.82984 16.49121,16.10463 12.82945,26.81132 z m 53.47538,-47.93189 c -3.66176,10.7067 -15.40067,17.19939 -27.3895,15.75774 -1.35455,-0.16291 -2.71302,-0.42484 -4.06287,-0.79631 -1.55668,-0.42695 -3.03188,-0.97889 -4.41933,-1.63757 -10.46584,-4.96186 -15.87229,-16.03301 -12.274,-26.55432 3.59908,-10.52201 14.99798,-16.97397 26.76902,-15.82655 1.56059,0.15238 3.12745,0.43608 4.68335,0.86373 1.34985,0.37147 2.63859,0.83634 3.86309,1.38196 10.83014,4.82984 16.49199,16.10533 12.83024,26.81132 z"
       style="fill:#e6a52e;fill-opacity:1" /><path
       id="path4243"
       d="m 374.11422,-424.05716 -14.56004,42.56836 c 11.98883,1.44095 23.72774,-5.05174 27.3895,-15.75774 3.66175,-10.70599 -2.0001,-21.98148 -12.82946,-26.81062 z"
       style="fill:#f7f1e6" /><path
       id="path4245"
       d="m 338.79876,-410.47629 c -3.59829,10.52131 1.80738,21.59245 12.274,26.55431 l 14.49581,-42.38087 c -11.77182,-1.14812 -23.17073,5.30455 -26.76981,15.82656 z"
       style="fill:#f7f1e6" /><path
       id="path4247"
       d="m 370.25113,-425.43912 c -1.55589,-0.42765 -3.12275,-0.71135 -4.68334,-0.86373 l -14.49581,42.38087 c 1.38745,0.65868 2.86265,1.20992 4.41933,1.63757 1.34985,0.37147 2.70832,0.6334 4.06287,0.79631 l 14.56004,-42.56836 c -1.2245,-0.54632 -2.51324,-1.01119 -3.86309,-1.38266 z"
       style="fill:#e0dcd3" /><path
       id="path4249"
       d="m 337.90487,-444.48885 c 3.66175,-10.70669 -2.0001,-21.98078 -12.82945,-26.80992 l -14.56005,42.56836 c 11.98883,1.44095 23.72696,-5.05174 27.3895,-15.75844 z"
       style="fill:#f7f1e6" /><path
       id="path4251"
       d="m 302.03396,-431.16429 14.49502,-42.38087 c -11.77025,-1.14812 -23.16995,5.30454 -26.76902,15.82655 -3.59908,10.52131 1.80737,21.59176 12.274,26.55432 z"
       style="fill:#f7f1e6" /><path
       id="path4253"
       d="m 306.4525,-429.52742 c 1.34985,0.37147 2.70832,0.63339 4.06287,0.79631 l 14.56005,-42.56836 c -1.22372,-0.54562 -2.51246,-1.01049 -3.8631,-1.38196 -1.55589,-0.42765 -3.12353,-0.71135 -4.68412,-0.86373 l -14.49503,42.38087 c 1.38746,0.65798 2.86266,1.20992 4.41933,1.63687 z"
       style="fill:#e0dcd3" /><path
       id="path4255"
       d="m 320.63885,-376.12527 -14.56004,42.56906 c 11.98883,1.44095 23.72774,-5.05174 27.38949,-15.75844 3.66176,-10.70669 -2.00009,-21.98148 -12.82945,-26.81062 z"
       style="fill:#f7f1e6" /><path
       id="path4257"
       d="m 285.32339,-362.5444 c -3.59908,10.52131 1.80738,21.59175 12.274,26.55431 l 14.49502,-42.38087 c -11.77103,-1.14812 -23.17072,5.30455 -26.76902,15.82656 z"
       style="fill:#f7f1e6" /><path
       id="path4259"
       d="m 316.77654,-377.50723 c -1.55667,-0.42765 -3.12353,-0.71135 -4.68413,-0.86373 l -14.49502,42.38087 c 1.38746,0.65868 2.86266,1.20992 4.41933,1.63757 1.34985,0.37077 2.70832,0.6327 4.06287,0.79631 l 14.56005,-42.56906 c -1.2245,-0.54632 -2.51325,-1.01049 -3.8631,-1.38196 z"
       style="fill:#e0dcd3" /><path
       id="path4261"
       d="m 284.4295,-396.55696 c 3.66175,-10.70669 -2.0001,-21.98078 -12.82945,-26.80992 L 257.04,-380.79852 c 11.98883,1.44095 23.72775,-5.05174 27.3895,-15.75844 z"
       style="fill:#f7f1e6" /><path
       id="path4263"
       d="m 248.55859,-383.2324 14.49502,-42.38087 c -11.77104,-1.14742 -23.17073,5.30454 -26.76902,15.82655 -3.5983,10.52131 1.80737,21.59175 12.274,26.55432 z"
       style="fill:#f7f1e6" /><path
       id="path4265"
       d="m 252.97713,-381.59483 c 1.34985,0.37077 2.70832,0.63269 4.06287,0.79631 l 14.56005,-42.56836 c -1.22372,-0.54562 -2.51246,-1.01049 -3.86231,-1.38196 -1.55589,-0.42765 -3.12354,-0.71205 -4.68413,-0.86443 l -14.49502,42.38087 c 1.38745,0.65797 2.86265,1.20992 4.41854,1.63757 z"
       style="fill:#e0dcd3" /><path
       id="path4267"
       d="m 267.16348,-328.19338 -14.56004,42.56906 c 11.98883,1.44095 23.72774,-5.05104 27.38949,-15.75773 3.66254,-10.7074 -1.99931,-21.98219 -12.82945,-26.81133 z"
       style="fill:#f7f1e6" /><path
       id="path4269"
       d="m 231.84881,-314.61322 c -3.59908,10.52201 1.80737,21.59246 12.27321,26.55502 l 14.49581,-42.38087 c -11.77182,-1.14812 -23.17073,5.30454 -26.76902,15.82585 z"
       style="fill:#f7f1e6" /><path
       id="path4271"
       d="m 263.30117,-329.57534 c -1.55589,-0.42765 -3.12275,-0.71205 -4.68334,-0.86373 l -14.49581,42.38087 c 1.38746,0.65798 2.86265,1.20922 4.41933,1.63757 1.34985,0.37077 2.70832,0.6334 4.06287,0.79631 l 14.56005,-42.56906 c -1.2245,-0.54562 -2.51325,-1.01049 -3.8631,-1.38196 z"
       style="fill:#e0dcd3" /><path
       id="path4273"
       d="m 230.95491,-348.62577 c 3.66175,-10.7067 -2.00088,-21.98148 -12.82945,-26.80992 l -14.55926,42.56836 c 11.98726,1.44165 23.72618,-5.05105 27.38871,-15.75844 z"
       style="fill:#f7f1e6" /><path
       id="path4275"
       d="m 195.08322,-335.30051 14.4958,-42.38157 c -11.77103,-1.14742 -23.17073,5.30454 -26.76902,15.82655 -3.59908,10.52201 1.80737,21.59245 12.27322,26.55502 z"
       style="fill:#f7f1e6" /><path
       id="path4277"
       d="m 199.50254,-333.66294 c 1.34985,0.37077 2.70754,0.63269 4.06287,0.79561 l 14.55927,-42.56836 c -1.2245,-0.54563 -2.51325,-1.01049 -3.8631,-1.38196 -1.55589,-0.42765 -3.12275,-0.71205 -4.68334,-0.86443 l -14.49581,42.38157 c 1.38824,0.65727 2.86344,1.20992 4.42011,1.63757 z"
       style="fill:#e0dcd3" /><path
       id="path4279"
       d="m 213.6889,-280.26149 -14.55927,42.56836 c 11.98805,1.44095 23.72697,-5.05175 27.3895,-15.75774 3.66097,-10.70739 -2.00088,-21.98148 -12.83023,-26.81062 z"
       style="fill:#f7f1e6" /><path
       id="path4281"
       d="m 178.37344,-266.68133 c -3.59908,10.52131 1.80737,21.59246 12.27321,26.55432 l 14.49581,-42.38087 c -11.77104,-1.14742 -23.17073,5.30454 -26.76902,15.82655 z"
       style="fill:#f7f1e6" /><path
       id="path4283"
       d="m 209.8258,-281.64345 c -1.55589,-0.42765 -3.12275,-0.71135 -4.68334,-0.86373 l -14.49581,42.38087 c 1.38746,0.65798 2.86265,1.20992 4.41933,1.63757 1.34985,0.37147 2.70832,0.6334 4.06365,0.79631 l 14.55927,-42.56836 c -1.2245,-0.54632 -2.51325,-1.01189 -3.8631,-1.38266 z"
       style="fill:#e0dcd3" /><path
       id="path4285"
       d="m 164.64931,-327.5038 -14.56005,42.56836 c 11.98883,1.44165 23.72775,-5.05105 27.3895,-15.75774 3.66253,-10.70669 -1.99932,-21.98218 -12.82945,-26.81062 z"
       style="fill:#f7f1e6" /><path
       id="path4287"
       d="m 129.33385,-313.92364 c -3.5983,10.52131 1.80815,21.59245 12.27399,26.55431 l 14.49503,-42.38086 c -11.77026,-1.14743 -23.16995,5.30454 -26.76902,15.82655 z"
       style="fill:#f7f1e6" /><path
       id="path4289"
       d="m 160.787,-328.88577 c -1.55668,-0.42765 -3.12354,-0.71134 -4.68413,-0.86372 l -14.49503,42.38087 c 1.38746,0.65797 2.86266,1.20992 4.41855,1.63756 1.35063,0.37078 2.70832,0.6334 4.06287,0.79562 l 14.56005,-42.56836 c -1.22372,-0.54563 -2.51246,-1.01049 -3.86231,-1.38197 z"
       style="fill:#e0dcd3" /></g></svg>